<?xml version="1.0" encoding="UTF-8" standalone="no"?>
<svg
   width="48"
   height="48"
   version="1"
   id="svg898"
   sodipodi:docname="terminal.svg"
   inkscape:version="1.1.1 (3bf5ae0d25, 2021-09-20)"
   xmlns:inkscape="http://www.inkscape.org/namespaces/inkscape"
   xmlns:sodipodi="http://sodipodi.sourceforge.net/DTD/sodipodi-0.dtd"
   xmlns="http://www.w3.org/2000/svg"
   xmlns:svg="http://www.w3.org/2000/svg">
  <defs
     id="defs902" />
  <sodipodi:namedview
     id="namedview900"
     pagecolor="#ffffff"
     bordercolor="#666666"
     borderopacity="1.0"
     inkscape:pageshadow="2"
     inkscape:pageopacity="0.0"
     inkscape:pagecheckerboard="0"
     showgrid="false"
     inkscape:zoom="6.9826795"
     inkscape:cx="21.266908"
     inkscape:cy="13.175458"
     inkscape:window-width="1326"
     inkscape:window-height="650"
     inkscape:window-x="20"
     inkscape:window-y="60"
     inkscape:window-maximized="0"
     inkscape:current-layer="svg898" />
  <rect
     style="opacity:0.2"
     width="40"
     height="36"
     x="4"
     y="7"
     rx="3"
     ry="3"
     id="rect880" />
  <rect
     style="fill:#4f4f4f"
     width="40"
     height="36"
     x="4"
     y="6"
     rx="3"
     ry="3"
     id="rect882" />
  <path
     style="fill:#ffffff;opacity:0.1"
     d="M 7 6 C 5.338 6 4 7.338 4 9 L 4 10 C 4 8.338 5.338 7 7 7 L 41 7 C 42.662 7 44 8.338 44 10 L 44 9 C 44 7.338 42.662 6 41 6 L 7 6 z"
     id="path884" />
  <g
     id="g1329"
     transform="translate(0,1.5)">
    <rect
       style="opacity:0.2"
       width="12"
       height="4"
       x="20"
       y="23"
       rx="1"
       ry="1"
       id="rect886" />
    <rect
       style="fill:#ffffff"
       width="12"
       height="4"
       x="20"
       y="22"
       rx="1"
       ry="1"
       id="rect888" />
  </g>
  <g
     id="g1241"
     transform="matrix(0.90903122,0,0,0.88239929,2.7278062,4.1737965)">
    <rect
       style="opacity:0.2"
       width="12.245"
       height="4.0819998"
       x="-12.71"
       y="23.120001"
       rx="1.02"
       ry="1.02"
       transform="matrix(0.72685813,-0.68678763,0.72685813,0.68678763,0,0)"
       id="rect890" />
    <rect
       style="fill:#ffffff;fill-opacity:1"
       width="12.245"
       height="4.0819998"
       x="-11.98"
       y="22.389999"
       rx="1.02"
       ry="1.02"
       transform="matrix(0.72685813,-0.68678763,0.72685813,0.68678763,0,0)"
       id="rect892" />
    <rect
       style="fill:#ffffff;stroke-width:0.998597;stroke-miterlimit:4;stroke-dasharray:none"
       width="12.245"
       height="4.0819998"
       x="14.23"
       y="-3.8199999"
       rx="1.02"
       ry="1.02"
       transform="matrix(0.72685813,0.68678763,0.72685813,-0.68678763,0,0)"
       id="rect896" />
  </g>
</svg>
